<svg xmlns="http://www.w3.org/2000/svg" viewBox="0 0 535 528">
  <!-- favicon (2026-07-19): her organic leaf monogram, ink on warm cream —
       replaced the old site's five-petal flower -->
  <rect width="535" height="528" rx="118" fill="#F5F0E8"/>
  <g transform="translate(267.5 264) scale(0.72) translate(-267.5 -264)">
    <path d="M402.0 508.5C394.5 506.4 357.4 504.6 320.5 504.5C291.5 504.4 278.3 504.0 275.5 503.2C273.3 502.5 265.0 501.5 257.0 501.0C237.2 499.8 222.3 495.0 210.0 486.1C203.8 481.6 202.6 481.9 203.2 487.9C204.2 498.0 198.6 498.4 181.0 489.5C137.6 467.8 112.6 422.8 107.9 358.3C106.6 339.5 106.3 338.9 87.4 320.6C58.3 292.5 47.6 276.8 34.5 243.0C22.0 210.8 17.9 180.2 22.4 151.5C25.7 130.2 27.9 130.4 41.2 152.6C54.7 175.1 57.8 182.8 68.2 220.5C78.4 257.6 82.5 269.8 90.6 287.3C103.1 314.2 105.8 314.7 108.4 290.9C113.9 239.8 114.5 227.0 111.7 215.9C97.5 158.9 113.8 98.5 158.9 40.9C186.4 5.7 186.9 13.2 162.5 99.5C157.1 118.7 153.5 128.4 140.1 160.2C123.4 200.1 115.4 239.0 124.0 239.0C126.7 239.0 129.3 235.1 141.2 212.5C161.9 173.4 177.3 155.2 205.9 136.1C232.0 118.7 235.3 120.6 221.9 145.3C197.0 191.2 177.1 215.9 145.2 239.9C127.1 253.6 119.9 263.7 116.0 280.4C113.4 291.5 115.3 341.8 118.4 344.8C121.7 348.1 122.8 346.6 132.5 325.5C149.5 289.0 169.8 263.3 195.1 246.4C213.0 234.6 213.5 234.8 210.1 253.1C203.1 291.9 184.5 320.7 148.5 349.2C122.2 369.9 120.0 376.2 129.0 403.2C140.8 438.5 162.6 465.1 186.7 473.5C196.1 476.9 199.8 476.8 200.5 473.2C203.5 458.9 208.5 450.0 220.7 436.8C245.5 410.2 252.5 400.2 270.5 366.0C285.7 337.2 292.5 327.9 316.9 302.6C328.1 291.0 333.2 284.9 338.5 276.5C352.1 254.7 356.1 249.1 363.1 241.6C390.0 212.8 429.0 206.7 440.0 229.5C445.3 240.4 445.4 241.5 445.6 287.0C445.7 337.1 446.7 345.9 455.0 369.5C463.9 394.7 474.4 411.4 507.0 452.5C534.8 487.3 526.7 500.2 472.8 506.5C460.5 508.0 405.6 509.5 402.0 508.5ZM365.8 182.9C326.7 177.2 289.4 139.3 293.9 110.0C302.0 57.8 372.3 12.4 431.8 21.0C465.1 25.7 470.9 39.8 458.0 85.0C455.9 92.4 453.4 102.8 452.6 108.0C444.5 157.8 408.2 189.1 365.8 182.9Z" fill="#2D2D2D" fill-rule="evenodd"/>
  </g>
</svg>
